<mxfile host="app.diagrams.net" modified="2022-11-21T11:08:02.916Z" agent="5.0 (Windows NT 10.0; Win64; x64) AppleWebKit/537.36 (KHTML, like Gecko) Chrome/107.0.0.0 Safari/537.36" etag="epWazsHVy3kg9ryZlGRb" version="20.5.3" type="github">
  <diagram id="yRdchs_GPXnK1_sotHDx" name="第 1 页">
    <mxGraphModel dx="1038" dy="947" grid="1" gridSize="10" guides="1" tooltips="1" connect="1" arrows="1" fold="1" page="0" pageScale="1" pageWidth="827" pageHeight="1169" math="0" shadow="0">
      <root>
        <mxCell id="0" />
        <mxCell id="1" parent="0" />
        <mxCell id="eDQDorIRAR0unVVpns8K-1" value="Backend API" style="rounded=1;whiteSpace=wrap;html=1;" vertex="1" parent="1">
          <mxGeometry x="320" y="25" width="120" height="60" as="geometry" />
        </mxCell>
        <mxCell id="eDQDorIRAR0unVVpns8K-2" value="Mutations" style="ellipse;whiteSpace=wrap;html=1;aspect=fixed;" vertex="1" parent="1">
          <mxGeometry x="510" y="265" width="80" height="80" as="geometry" />
        </mxCell>
        <mxCell id="eDQDorIRAR0unVVpns8K-3" value="State" style="ellipse;whiteSpace=wrap;html=1;aspect=fixed;" vertex="1" parent="1">
          <mxGeometry x="350" y="345" width="80" height="80" as="geometry" />
        </mxCell>
        <mxCell id="eDQDorIRAR0unVVpns8K-4" value="Actions" style="ellipse;whiteSpace=wrap;html=1;aspect=fixed;" vertex="1" parent="1">
          <mxGeometry x="340" y="160" width="80" height="80" as="geometry" />
        </mxCell>
        <mxCell id="eDQDorIRAR0unVVpns8K-5" value="Devtools" style="rounded=1;whiteSpace=wrap;html=1;" vertex="1" parent="1">
          <mxGeometry x="700" y="280" width="120" height="60" as="geometry" />
        </mxCell>
        <mxCell id="eDQDorIRAR0unVVpns8K-6" value="&lt;span style=&quot;color: rgb(51, 51, 51); font-family: &amp;quot;Open Sans&amp;quot;, &amp;quot;Clear Sans&amp;quot;, &amp;quot;Helvetica Neue&amp;quot;, Helvetica, Arial, sans-serif; font-size: 16px; orphans: 4; text-align: start;&quot;&gt;Vue Components&lt;/span&gt;" style="rounded=1;whiteSpace=wrap;html=1;" vertex="1" parent="1">
          <mxGeometry x="90" y="260" width="160" height="60" as="geometry" />
        </mxCell>
        <mxCell id="eDQDorIRAR0unVVpns8K-8" value="" style="endArrow=none;dashed=1;html=1;dashPattern=1 3;strokeWidth=2;rounded=0;" edge="1" parent="1">
          <mxGeometry width="50" height="50" relative="1" as="geometry">
            <mxPoint x="300" y="130" as="sourcePoint" />
            <mxPoint x="660" y="130" as="targetPoint" />
          </mxGeometry>
        </mxCell>
        <mxCell id="eDQDorIRAR0unVVpns8K-9" value="" style="endArrow=classic;html=1;rounded=0;exitX=0.5;exitY=0;exitDx=0;exitDy=0;entryX=0;entryY=0.5;entryDx=0;entryDy=0;" edge="1" parent="1" source="eDQDorIRAR0unVVpns8K-6" target="eDQDorIRAR0unVVpns8K-4">
          <mxGeometry width="50" height="50" relative="1" as="geometry">
            <mxPoint x="240" y="260" as="sourcePoint" />
            <mxPoint x="340" y="190" as="targetPoint" />
            <Array as="points">
              <mxPoint x="170" y="200" />
            </Array>
          </mxGeometry>
        </mxCell>
        <mxCell id="eDQDorIRAR0unVVpns8K-10" value="Dispatch&lt;br&gt;分发派遣" style="text;html=1;align=center;verticalAlign=middle;resizable=0;points=[];autosize=1;strokeColor=none;fillColor=none;" vertex="1" parent="1">
          <mxGeometry x="195" y="155" width="70" height="40" as="geometry" />
        </mxCell>
        <mxCell id="eDQDorIRAR0unVVpns8K-12" value="" style="endArrow=classic;html=1;rounded=0;entryX=0.62;entryY=-0.017;entryDx=0;entryDy=0;entryPerimeter=0;exitX=1;exitY=0.5;exitDx=0;exitDy=0;" edge="1" parent="1" source="eDQDorIRAR0unVVpns8K-4" target="eDQDorIRAR0unVVpns8K-2">
          <mxGeometry width="50" height="50" relative="1" as="geometry">
            <mxPoint x="470" y="246.48" as="sourcePoint" />
            <mxPoint x="580" y="193.51999999999995" as="targetPoint" />
            <Array as="points">
              <mxPoint x="560" y="200" />
            </Array>
          </mxGeometry>
        </mxCell>
        <mxCell id="eDQDorIRAR0unVVpns8K-13" value="Commit&lt;br&gt;提交" style="text;html=1;align=center;verticalAlign=middle;resizable=0;points=[];autosize=1;strokeColor=none;fillColor=none;" vertex="1" parent="1">
          <mxGeometry x="490" y="160" width="60" height="40" as="geometry" />
        </mxCell>
        <mxCell id="eDQDorIRAR0unVVpns8K-14" value="行为" style="text;html=1;align=center;verticalAlign=middle;resizable=0;points=[];autosize=1;strokeColor=none;fillColor=none;" vertex="1" parent="1">
          <mxGeometry x="355" y="255" width="50" height="30" as="geometry" />
        </mxCell>
        <mxCell id="eDQDorIRAR0unVVpns8K-15" value="组件" style="text;html=1;align=center;verticalAlign=middle;resizable=0;points=[];autosize=1;strokeColor=none;fillColor=none;" vertex="1" parent="1">
          <mxGeometry x="250" y="280" width="50" height="30" as="geometry" />
        </mxCell>
        <mxCell id="eDQDorIRAR0unVVpns8K-16" value="状态" style="text;html=1;align=center;verticalAlign=middle;resizable=0;points=[];autosize=1;strokeColor=none;fillColor=none;" vertex="1" parent="1">
          <mxGeometry x="365" y="425" width="50" height="30" as="geometry" />
        </mxCell>
        <mxCell id="eDQDorIRAR0unVVpns8K-17" value="加工" style="text;html=1;align=center;verticalAlign=middle;resizable=0;points=[];autosize=1;strokeColor=none;fillColor=none;" vertex="1" parent="1">
          <mxGeometry x="460" y="295" width="50" height="30" as="geometry" />
        </mxCell>
        <mxCell id="eDQDorIRAR0unVVpns8K-20" value="开发者工具" style="text;html=1;align=center;verticalAlign=middle;resizable=0;points=[];autosize=1;strokeColor=none;fillColor=none;" vertex="1" parent="1">
          <mxGeometry x="720" y="355" width="80" height="30" as="geometry" />
        </mxCell>
        <mxCell id="eDQDorIRAR0unVVpns8K-21" value="Render&lt;br&gt;渲染" style="text;html=1;align=center;verticalAlign=middle;resizable=0;points=[];autosize=1;strokeColor=none;fillColor=none;" vertex="1" parent="1">
          <mxGeometry x="210" y="390" width="60" height="40" as="geometry" />
        </mxCell>
        <mxCell id="eDQDorIRAR0unVVpns8K-25" value="" style="endArrow=classic;html=1;rounded=0;" edge="1" parent="1" target="eDQDorIRAR0unVVpns8K-3">
          <mxGeometry width="50" height="50" relative="1" as="geometry">
            <mxPoint x="550" y="340" as="sourcePoint" />
            <mxPoint x="569.5999999999999" y="278.64" as="targetPoint" />
            <Array as="points">
              <mxPoint x="550" y="390" />
            </Array>
          </mxGeometry>
        </mxCell>
        <mxCell id="eDQDorIRAR0unVVpns8K-26" value="" style="endArrow=classic;html=1;rounded=0;exitX=0;exitY=0.5;exitDx=0;exitDy=0;entryX=0.58;entryY=1.037;entryDx=0;entryDy=0;entryPerimeter=0;" edge="1" parent="1" source="eDQDorIRAR0unVVpns8K-3" target="eDQDorIRAR0unVVpns8K-6">
          <mxGeometry width="50" height="50" relative="1" as="geometry">
            <mxPoint x="312.8399999999999" y="384.99999999999994" as="sourcePoint" />
            <mxPoint x="199.96210313931536" y="414.0851314462072" as="targetPoint" />
            <Array as="points">
              <mxPoint x="180" y="380" />
            </Array>
          </mxGeometry>
        </mxCell>
        <mxCell id="eDQDorIRAR0unVVpns8K-27" value="后端接口" style="text;html=1;align=center;verticalAlign=middle;resizable=0;points=[];autosize=1;strokeColor=none;fillColor=none;" vertex="1" parent="1">
          <mxGeometry x="345" y="-5" width="70" height="30" as="geometry" />
        </mxCell>
        <mxCell id="eDQDorIRAR0unVVpns8K-28" value="" style="shape=flexArrow;endArrow=classic;startArrow=classic;html=1;rounded=0;entryX=0.5;entryY=1;entryDx=0;entryDy=0;" edge="1" parent="1" source="eDQDorIRAR0unVVpns8K-4" target="eDQDorIRAR0unVVpns8K-1">
          <mxGeometry width="100" height="100" relative="1" as="geometry">
            <mxPoint x="315" y="250" as="sourcePoint" />
            <mxPoint x="415" y="150" as="targetPoint" />
          </mxGeometry>
        </mxCell>
        <mxCell id="eDQDorIRAR0unVVpns8K-29" value="" style="shape=flexArrow;endArrow=classic;startArrow=classic;html=1;rounded=0;entryX=0;entryY=0.5;entryDx=0;entryDy=0;exitX=1;exitY=0.5;exitDx=0;exitDy=0;" edge="1" parent="1" source="eDQDorIRAR0unVVpns8K-2" target="eDQDorIRAR0unVVpns8K-5">
          <mxGeometry width="100" height="100" relative="1" as="geometry">
            <mxPoint x="540" y="330" as="sourcePoint" />
            <mxPoint x="640" y="230" as="targetPoint" />
          </mxGeometry>
        </mxCell>
        <mxCell id="eDQDorIRAR0unVVpns8K-31" value="Mutate&lt;br&gt;操作" style="text;html=1;align=center;verticalAlign=middle;resizable=0;points=[];autosize=1;strokeColor=none;fillColor=none;" vertex="1" parent="1">
          <mxGeometry x="460" y="385" width="60" height="40" as="geometry" />
        </mxCell>
        <mxCell id="eDQDorIRAR0unVVpns8K-32" value="" style="endArrow=none;dashed=1;html=1;dashPattern=1 3;strokeWidth=2;rounded=0;" edge="1" parent="1">
          <mxGeometry width="50" height="50" relative="1" as="geometry">
            <mxPoint x="300" y="470" as="sourcePoint" />
            <mxPoint x="300" y="130" as="targetPoint" />
          </mxGeometry>
        </mxCell>
        <mxCell id="eDQDorIRAR0unVVpns8K-33" value="" style="endArrow=none;dashed=1;html=1;dashPattern=1 3;strokeWidth=2;rounded=0;" edge="1" parent="1">
          <mxGeometry width="50" height="50" relative="1" as="geometry">
            <mxPoint x="300" y="470" as="sourcePoint" />
            <mxPoint x="630" y="480" as="targetPoint" />
          </mxGeometry>
        </mxCell>
        <mxCell id="eDQDorIRAR0unVVpns8K-34" value="" style="endArrow=none;dashed=1;html=1;dashPattern=1 3;strokeWidth=2;rounded=0;" edge="1" parent="1">
          <mxGeometry width="50" height="50" relative="1" as="geometry">
            <mxPoint x="630" y="480" as="sourcePoint" />
            <mxPoint x="650" y="130" as="targetPoint" />
          </mxGeometry>
        </mxCell>
        <mxCell id="eDQDorIRAR0unVVpns8K-35" value="store&lt;br style=&quot;font-size: 24px;&quot;&gt;仓库" style="text;html=1;align=center;verticalAlign=top;resizable=0;points=[];autosize=1;strokeColor=none;fillColor=none;fontSize=24;fontStyle=1" vertex="1" parent="1">
          <mxGeometry x="650" y="30" width="80" height="70" as="geometry" />
        </mxCell>
        <mxCell id="eDQDorIRAR0unVVpns8K-36" value="Vuex" style="text;html=1;align=center;verticalAlign=middle;resizable=0;points=[];autosize=1;strokeColor=none;fillColor=none;" vertex="1" parent="1">
          <mxGeometry x="515" y="85" width="50" height="30" as="geometry" />
        </mxCell>
        <mxCell id="eDQDorIRAR0unVVpns8K-42" value="顾客" style="rounded=1;whiteSpace=wrap;html=1;strokeWidth=2;fillWeight=4;hachureGap=8;hachureAngle=45;fillColor=#1ba1e2;sketch=1;fontSize=24;" vertex="1" parent="1">
          <mxGeometry x="80" y="330" width="75" height="30" as="geometry" />
        </mxCell>
        <mxCell id="eDQDorIRAR0unVVpns8K-43" value="服务员&lt;span style=&quot;color: rgba(0, 0, 0, 0); font-family: monospace; font-size: 0px; text-align: start;&quot;&gt;%3CmxGraphModel%3E%3Croot%3E%3CmxCell%20id%3D%220%22%2F%3E%3CmxCell%20id%3D%221%22%20parent%3D%220%22%2F%3E%3CmxCell%20id%3D%222%22%20value%3D%22%E9%A1%BE%E5%AE%A2%22%20style%3D%22rounded%3D1%3BwhiteSpace%3Dwrap%3Bhtml%3D1%3BstrokeWidth%3D2%3BfillWeight%3D4%3BhachureGap%3D8%3BhachureAngle%3D45%3BfillColor%3D%231ba1e2%3Bsketch%3D1%3BfontSize%3D24%3B%22%20vertex%3D%221%22%20parent%3D%221%22%3E%3CmxGeometry%20x%3D%2290%22%20y%3D%22210%22%20width%3D%2275%22%20height%3D%2230%22%20as%3D%22geometry%22%2F%3E%3C%2FmxCell%3E%3C%2Froot%3E%3C%2FmxGraphModel%3E&lt;/span&gt;" style="rounded=1;whiteSpace=wrap;html=1;strokeWidth=2;fillWeight=4;hachureGap=8;hachureAngle=45;fillColor=#1ba1e2;sketch=1;fontSize=24;" vertex="1" parent="1">
          <mxGeometry x="415" y="140" width="75" height="30" as="geometry" />
        </mxCell>
        <mxCell id="eDQDorIRAR0unVVpns8K-44" value="后厨" style="rounded=1;whiteSpace=wrap;html=1;strokeWidth=2;fillWeight=4;hachureGap=8;hachureAngle=45;fillColor=#1ba1e2;sketch=1;fontSize=24;" vertex="1" parent="1">
          <mxGeometry x="565" y="345" width="75" height="30" as="geometry" />
        </mxCell>
        <mxCell id="eDQDorIRAR0unVVpns8K-45" value="菜" style="rounded=1;whiteSpace=wrap;html=1;strokeWidth=2;fillWeight=4;hachureGap=8;hachureAngle=45;fillColor=#1ba1e2;sketch=1;fontSize=24;" vertex="1" parent="1">
          <mxGeometry x="350" y="480" width="75" height="30" as="geometry" />
        </mxCell>
        <mxCell id="eDQDorIRAR0unVVpns8K-46" value="老板" style="rounded=1;whiteSpace=wrap;html=1;strokeWidth=2;fillWeight=4;hachureGap=8;hachureAngle=45;fillColor=#1ba1e2;sketch=1;fontSize=24;" vertex="1" parent="1">
          <mxGeometry x="745" y="50" width="75" height="30" as="geometry" />
        </mxCell>
      </root>
    </mxGraphModel>
  </diagram>
</mxfile>
